<?xml version="1.0" encoding="UTF-8"?>
<!DOCTYPE svg PUBLIC "-//W3C//DTD SVG 1.1//EN"
    "http://www.w3.org/Graphics/SVG/1.1/DTD/svg11.dtd"><svg xmlns="http://www.w3.org/2000/svg" height="143.0883" stroke-opacity="1" viewBox="0 0 1000 143" font-size="1" width="999.8000" xmlns:xlink="http://www.w3.org/1999/xlink" stroke="rgb(0,0,0)" version="1.1"><defs></defs><g stroke-linejoin="miter" stroke-opacity="1.0" fill-opacity="1.0" font-size="24.0px" stroke="rgb(0,0,0)" stroke-width="1.5129293127821548" fill="rgb(0,0,0)" stroke-linecap="butt" stroke-miterlimit="10.0"><text dominant-baseline="middle" transform="matrix(1.0000,0.0000,0.0000,1.0000,961.0000,136.0883)" stroke="none" text-anchor="middle">5</text></g><g stroke-linejoin="miter" stroke-opacity="1.0" fill-opacity="1.0" font-size="24.0px" stroke="rgb(0,0,0)" stroke-width="1.5129293127821548" fill="rgb(0,0,0)" stroke-linecap="butt" stroke-miterlimit="10.0"><text dominant-baseline="middle" transform="matrix(1.0000,0.0000,0.0000,1.0000,889.0000,136.0883)" stroke="none" text-anchor="middle">5</text></g><g stroke-linejoin="miter" stroke-opacity="1.0" fill-opacity="1.0" font-size="24.0px" stroke="rgb(0,0,0)" stroke-width="1.5129293127821548" fill="rgb(0,0,0)" stroke-linecap="butt" stroke-miterlimit="10.0"><text dominant-baseline="middle" transform="matrix(1.0000,0.0000,0.0000,1.0000,817.0000,136.0883)" stroke="none" text-anchor="middle">4</text></g><g stroke-linejoin="miter" stroke-opacity="1.0" fill-opacity="1.0" font-size="24.0px" stroke="rgb(0,0,0)" stroke-width="1.5129293127821548" fill="rgb(0,0,0)" stroke-linecap="butt" stroke-miterlimit="10.0"><text dominant-baseline="middle" transform="matrix(1.0000,0.0000,0.0000,1.0000,745.0000,136.0883)" stroke="none" text-anchor="middle">1</text></g><g stroke-linejoin="miter" stroke-opacity="1.0" fill-opacity="1.0" font-size="24.0px" stroke="rgb(0,0,0)" stroke-width="1.5129293127821548" fill="rgb(0,0,0)" stroke-linecap="butt" stroke-miterlimit="10.0"><text dominant-baseline="middle" transform="matrix(1.0000,0.0000,0.0000,1.0000,673.0000,136.0883)" stroke="none" text-anchor="middle">1</text></g><g stroke-linejoin="miter" stroke-opacity="1.0" fill-opacity="1.0" font-size="24.0px" stroke="rgb(0,0,0)" stroke-width="1.5129293127821548" fill="rgb(204,0,0)" font-weight="bold" stroke-linecap="butt" stroke-miterlimit="10.0"><text dominant-baseline="middle" transform="matrix(1.0000,0.0000,0.0000,1.0000,601.0000,136.0883)" stroke="none" text-anchor="middle">1</text></g><g stroke-linejoin="miter" stroke-opacity="1.0" fill-opacity="1.0" font-size="24.0px" stroke="rgb(0,0,0)" stroke-width="1.5129293127821548" fill="rgb(204,0,0)" font-weight="bold" stroke-linecap="butt" stroke-miterlimit="10.0"><text dominant-baseline="middle" transform="matrix(1.0000,0.0000,0.0000,1.0000,529.0000,136.0883)" stroke="none" text-anchor="middle">1</text></g><g stroke-linejoin="miter" stroke-opacity="1.0" fill-opacity="1.0" font-size="24.0px" stroke="rgb(0,0,0)" stroke-width="1.5129293127821548" fill="rgb(204,0,0)" font-weight="bold" stroke-linecap="butt" stroke-miterlimit="10.0"><text dominant-baseline="middle" transform="matrix(1.0000,0.0000,0.0000,1.0000,457.0000,136.0883)" stroke="none" text-anchor="middle">4</text></g><g stroke-linejoin="miter" stroke-opacity="1.0" fill-opacity="1.0" font-size="24.0px" stroke="rgb(0,0,0)" stroke-width="1.5129293127821548" fill="rgb(204,0,0)" font-weight="bold" stroke-linecap="butt" stroke-miterlimit="10.0"><text dominant-baseline="middle" transform="matrix(1.0000,0.0000,0.0000,1.0000,385.0000,136.0883)" stroke="none" text-anchor="middle">5</text></g><g stroke-linejoin="miter" stroke-opacity="1.0" fill-opacity="1.0" font-size="24.0px" stroke="rgb(0,0,0)" stroke-width="1.5129293127821548" fill="rgb(204,0,0)" font-weight="bold" stroke-linecap="butt" stroke-miterlimit="10.0"><text dominant-baseline="middle" transform="matrix(1.0000,0.0000,0.0000,1.0000,313.0000,136.0883)" stroke="none" text-anchor="middle">5</text></g><g stroke-linejoin="miter" stroke-opacity="1.0" fill-opacity="1.0" font-size="24.0px" stroke="rgb(0,0,0)" stroke-width="1.5129293127821548" fill="rgb(204,0,0)" font-weight="bold" stroke-linecap="butt" stroke-miterlimit="10.0"><text dominant-baseline="middle" transform="matrix(1.0000,0.0000,0.0000,1.0000,241.0000,136.0883)" stroke="none" text-anchor="middle">2</text></g><g stroke-linejoin="miter" stroke-opacity="1.0" fill-opacity="1.0" font-size="24.0px" stroke="rgb(0,0,0)" stroke-width="1.5129293127821548" fill="rgb(204,0,0)" font-weight="bold" stroke-linecap="butt" stroke-miterlimit="10.0"><text dominant-baseline="middle" transform="matrix(1.0000,0.0000,0.0000,1.0000,169.0000,136.0883)" stroke="none" text-anchor="middle">4</text></g><g stroke-linejoin="miter" stroke-opacity="1.0" fill-opacity="1.0" font-size="24.0px" stroke="rgb(0,0,0)" stroke-width="1.5129293127821548" fill="rgb(204,0,0)" font-weight="bold" stroke-linecap="butt" stroke-miterlimit="10.0"><text dominant-baseline="middle" transform="matrix(1.0000,0.0000,0.0000,1.0000,97.0000,136.0883)" stroke="none" text-anchor="middle">2</text></g><g stroke-linejoin="miter" stroke-opacity="1.0" fill-opacity="1.0" font-size="24.0px" stroke="rgb(0,0,0)" stroke-width="1.5129293127821548" fill="rgb(204,0,0)" font-weight="bold" stroke-linecap="butt" stroke-miterlimit="10.0"><text dominant-baseline="middle" transform="matrix(1.0000,0.0000,0.0000,1.0000,25.0000,136.0883)" stroke="none" text-anchor="middle">4</text></g><g stroke-linejoin="miter" stroke-opacity="1.0" fill-opacity="1.0" stroke="rgb(0,0,0)" stroke-width="1.5129293127821548" fill="rgb(255,255,255)" stroke-linecap="butt" stroke-miterlimit="10.0"><path d="M 961.0000,66.4883 l 18.0000,-9.0000 v 36.0000 l -18.0000,-9.0000 l -18.0000,9.0000 l 0.0000,-36.0000 Z"/></g><g stroke-linejoin="miter" stroke-opacity="1.0" fill-opacity="1.0" stroke="rgb(0,0,0)" stroke-width="1.5129293127821548" fill="rgb(255,255,255)" stroke-linecap="butt" stroke-miterlimit="10.0"><path d="M 992.8000,52.6883 l -0.0000,-18.0000 h -18.0000 l -0.0000,18.0000 Z"/></g><g stroke-linejoin="miter" stroke-opacity="1.0" fill-opacity="1.0" stroke="rgb(0,0,0)" stroke-width="1.5129293127821548" fill="rgb(255,255,255)" stroke-linecap="butt" stroke-miterlimit="10.0"><path d="M 970.0000,52.6883 l -0.0000,-18.0000 h -18.0000 l -0.0000,18.0000 Z"/></g><g stroke-linejoin="miter" stroke-opacity="1.0" fill-opacity="1.0" stroke="rgb(0,0,0)" stroke-width="1.5129293127821548" fill="rgb(255,255,255)" stroke-linecap="butt" stroke-miterlimit="10.0"><path d="M 947.2000,52.6883 l -0.0000,-18.0000 h -18.0000 l -0.0000,18.0000 Z"/></g><g stroke-linejoin="miter" stroke-opacity="1.0" fill-opacity="1.0" stroke="rgb(0,0,0)" stroke-width="1.5129293127821548" fill="rgb(255,255,255)" stroke-linecap="butt" stroke-miterlimit="10.0"><path d="M 907.0000,108.4883 l -0.0000,-36.0000 h -36.0000 l -0.0000,36.0000 Z"/></g><g stroke-linejoin="miter" stroke-opacity="1.0" fill-opacity="0.0" stroke="rgb(0,0,0)" stroke-width="1.5129293127821548" fill="rgb(0,0,0)" stroke-linecap="butt" stroke-miterlimit="10.0"><path d="M 871.0000,72.4883 l 36.0000,36.0000 "/></g><g stroke-linejoin="miter" stroke-opacity="1.0" fill-opacity="0.0" stroke="rgb(0,0,0)" stroke-width="1.5129293127821548" fill="rgb(0,0,0)" stroke-linecap="butt" stroke-miterlimit="10.0"><path d="M 871.0000,108.4883 l 36.0000,-36.0000 "/></g><g stroke-linejoin="miter" stroke-opacity="1.0" fill-opacity="1.0" stroke="rgb(0,0,0)" stroke-width="1.5129293127821548" fill="rgb(255,255,255)" stroke-linecap="butt" stroke-miterlimit="10.0"><path d="M 913.0000,43.6883 l -24.0000,-24.0000 l -24.0000,24.0000 l 24.0000,24.0000 Z"/></g><g stroke-linejoin="miter" stroke-opacity="1.0" fill-opacity="1.0" stroke="rgb(0,0,0)" stroke-width="1.5129293127821548" fill="rgb(255,255,255)" stroke-linecap="butt" stroke-miterlimit="10.0"><path d="M 843.4000,121.1766 l -0.0000,-24.0000 h -24.0000 l -0.0000,24.0000 Z"/></g><g stroke-linejoin="miter" stroke-opacity="1.0" fill-opacity="1.0" stroke="rgb(0,0,0)" stroke-width="1.5129293127821548" fill="rgb(255,255,255)" stroke-linecap="butt" stroke-miterlimit="10.0"><path d="M 814.6000,121.1766 l -0.0000,-24.0000 h -24.0000 l -0.0000,24.0000 Z"/></g><g stroke-linejoin="miter" stroke-opacity="1.0" fill-opacity="1.0" stroke="rgb(0,0,0)" stroke-width="1.5129293127821548" fill="rgb(255,255,255)" stroke-linecap="butt" stroke-miterlimit="10.0"><path d="M 836.2000,73.1766 l -19.2000,-19.2000 l -19.2000,19.2000 l 19.2000,19.2000 Z"/></g><g stroke-linejoin="miter" stroke-opacity="1.0" fill-opacity="1.0" stroke="rgb(0,0,0)" stroke-width="1.5129293127821548" fill="rgb(255,255,255)" stroke-linecap="butt" stroke-miterlimit="10.0"><path d="M 835.0000,13.1766 c -8.2355,-8.2355 -21.5879,-8.2355 -29.8234 -0.0000c -8.2355,8.2355 -8.2355,21.5879 -0.0000 29.8234c 8.2355,8.2355 21.5879,8.2355 29.8234 0.0000c -8.2355,-0.0000 -14.9117,-6.6762 -14.9117 -14.9117c 0.0000,-8.2355 6.6762,-14.9117 14.9117 -14.9117Z"/></g><g stroke-linejoin="miter" stroke-opacity="1.0" fill-opacity="1.0" stroke="rgb(0,0,0)" stroke-width="1.5129293127821548" fill="rgb(255,255,255)" stroke-linecap="butt" stroke-miterlimit="10.0"><path d="M 745.0000,69.4883 l 18.0000,-9.0000 v 36.0000 l -18.0000,-9.0000 l -18.0000,9.0000 l 0.0000,-36.0000 Z"/></g><g stroke-linejoin="miter" stroke-opacity="1.0" fill-opacity="1.0" stroke="rgb(0,0,0)" stroke-width="1.5129293127821548" fill="rgb(255,255,255)" stroke-linecap="butt" stroke-miterlimit="10.0"><path d="M 763.4000,39.6883 h 8.0000 v 8.0000 h -8.0000 l 0.0000,8.0000 l -8.0000,0.0000 l -0.0000,-8.0000 l -8.0000,0.0000 l -0.0000,-8.0000 l 8.0000,-0.0000 l -0.0000,-8.0000 l 8.0000,-0.0000 Z"/></g><g stroke-linejoin="miter" stroke-opacity="1.0" fill-opacity="1.0" stroke="rgb(0,0,0)" stroke-width="1.5129293127821548" fill="rgb(255,255,255)" stroke-linecap="butt" stroke-miterlimit="10.0"><path d="M 734.6000,39.6883 h 8.0000 v 8.0000 h -8.0000 l 0.0000,8.0000 l -8.0000,0.0000 l -0.0000,-8.0000 l -8.0000,0.0000 l -0.0000,-8.0000 l 8.0000,-0.0000 l -0.0000,-8.0000 l 8.0000,-0.0000 Z"/></g><g stroke-linejoin="miter" stroke-opacity="1.0" fill-opacity="1.0" stroke="rgb(0,0,0)" stroke-width="1.5129293127821548" fill="rgb(255,255,255)" stroke-linecap="butt" stroke-miterlimit="10.0"><path d="M 697.0000,77.9447 l 0.0000,-27.7128 l -24.0000,-13.8564 l -24.0000,13.8564 l -0.0000,27.7128 l 24.0000,13.8564 Z"/></g><g stroke-linejoin="miter" stroke-opacity="1.0" fill-opacity="1.0" stroke="rgb(0,0,0)" stroke-width="1.5129293127821548" fill="rgb(255,255,255)" stroke-linecap="butt" stroke-miterlimit="10.0"><path d="M 681.0000,80.4797 l 0.0000,-9.2376 l -8.0000,-4.6188 l -8.0000,4.6188 l -0.0000,9.2376 l 8.0000,4.6188 Z"/></g><g stroke-linejoin="miter" stroke-opacity="1.0" fill-opacity="1.0" stroke="rgb(0,0,0)" stroke-width="1.5129293127821548" fill="rgb(255,255,255)" stroke-linecap="butt" stroke-miterlimit="10.0"><path d="M 681.0000,45.8233 c -3.6602,-3.6602 -9.5946,-3.6602 -13.2548 -0.0000c -3.6602,3.6602 -3.6602,9.5946 -0.0000 13.2548c 3.6602,3.6602 9.5946,3.6602 13.2548 0.0000c -3.6602,-0.0000 -6.6274,-2.9672 -6.6274 -6.6274c 0.0000,-3.6602 2.9672,-6.6274 6.6274 -6.6274Z"/></g><g stroke-linejoin="miter" stroke-opacity="1.0" fill-opacity="1.0" stroke="rgb(0,0,0)" stroke-width="1.5129293127821548" fill="rgb(0,0,0)" stroke-linecap="butt" stroke-miterlimit="10.0"><path d="M 619.0000,100.0768 l -18.0000,-31.1769 l -18.0000,31.1769 Z"/></g><g stroke-linejoin="miter" stroke-opacity="1.0" fill-opacity="1.0" stroke="rgb(0,0,0)" stroke-width="1.5129293127821548" fill="rgb(255,255,255)" stroke-linecap="butt" stroke-miterlimit="10.0"><path d="M 607.0000,40.0999 h 12.0000 v 12.0000 h -12.0000 l 0.0000,12.0000 l -12.0000,0.0000 l -0.0000,-12.0000 l -12.0000,0.0000 l -0.0000,-12.0000 l 12.0000,-0.0000 l -0.0000,-12.0000 l 12.0000,-0.0000 Z"/></g><g stroke-linejoin="miter" stroke-opacity="1.0" fill-opacity="1.0" stroke="rgb(0,0,0)" stroke-width="1.5129293127821548" fill="rgb(255,255,255)" stroke-linecap="butt" stroke-miterlimit="10.0"><path d="M 529.0000,87.7133 c 0.0000,-12.0000 -24.0000,-18.0000 -24.0000 -36.0000c 0.0000,-15.0000 24.0000,-15.0000 24.0000 -0.0000c 0.0000,-15.0000 24.0000,-15.0000 24.0000 0.0000c 0.0000,18.0000 -24.0000,24.0000 -24.0000 36.0000Z"/></g><g stroke-linejoin="miter" stroke-opacity="1.0" fill-opacity="1.0" stroke="rgb(0,0,0)" stroke-width="1.5129293127821548" fill="rgb(255,255,255)" stroke-linecap="butt" stroke-miterlimit="10.0"><path d="M 539.0000,64.0883 c 0.0000,-5.5228 -4.4772,-10.0000 -10.0000 -10.0000c -5.5228,-0.0000 -10.0000,4.4772 -10.0000 10.0000c -0.0000,5.5228 4.4772,10.0000 10.0000 10.0000c 5.5228,0.0000 10.0000,-4.4772 10.0000 -10.0000Z"/></g><g stroke-linejoin="miter" stroke-opacity="1.0" fill-opacity="1.0" stroke="rgb(0,0,0)" stroke-width="1.5129293127821548" fill="rgb(0,0,0)" stroke-linecap="butt" stroke-miterlimit="10.0"><path d="M 481.0000,84.8729 l -24.0000,-41.5692 l -24.0000,41.5692 Z"/></g><g stroke-linejoin="miter" stroke-opacity="1.0" fill-opacity="1.0" stroke="rgb(0,0,0)" stroke-width="1.5129293127821548" fill="rgb(255,255,255)" stroke-linecap="butt" stroke-miterlimit="10.0"><path d="M 469.0000,78.0806 l -12.0000,-20.7846 l -12.0000,20.7846 Z"/></g><g stroke-linejoin="miter" stroke-opacity="1.0" fill-opacity="1.0" stroke="rgb(0,0,0)" stroke-width="1.5129293127821548" fill="rgb(0,0,0)" stroke-linecap="butt" stroke-miterlimit="10.0"><path d="M 385.0000,102.2071 c 0.0000,-9.0000 -18.0000,-13.5000 -18.0000 -27.0000c 0.0000,-11.2500 18.0000,-11.2500 18.0000 -0.0000c 0.0000,-11.2500 18.0000,-11.2500 18.0000 0.0000c 0.0000,13.5000 -18.0000,18.0000 -18.0000 27.0000Z"/></g><g stroke-linejoin="miter" stroke-opacity="1.0" fill-opacity="1.0" stroke="rgb(0,0,0)" stroke-width="1.5129293127821548" fill="rgb(255,255,255)" stroke-linecap="butt" stroke-miterlimit="10.0"><path d="M 403.0000,43.9696 l -18.0000,-18.0000 l -18.0000,18.0000 l 18.0000,18.0000 Z"/></g><g stroke-linejoin="miter" stroke-opacity="1.0" fill-opacity="1.0" stroke="rgb(0,0,0)" stroke-width="1.5129293127821548" fill="rgb(255,255,255)" stroke-linecap="butt" stroke-miterlimit="10.0"><path d="M 325.8000,104.6071 l 8.0000,-8.0000 l 8.0000,8.0000 h -4.0000 v 8.0000 h -8.0000 v -8.0000 Z"/></g><g stroke-linejoin="miter" stroke-opacity="1.0" fill-opacity="1.0" stroke="rgb(0,0,0)" stroke-width="1.5129293127821548" fill="rgb(255,255,255)" stroke-linecap="butt" stroke-miterlimit="10.0"><path d="M 305.0000,104.6071 l 8.0000,-8.0000 l 8.0000,8.0000 h -4.0000 v 8.0000 h -8.0000 v -8.0000 Z"/></g><g stroke-linejoin="miter" stroke-opacity="1.0" fill-opacity="1.0" stroke="rgb(0,0,0)" stroke-width="1.5129293127821548" fill="rgb(255,255,255)" stroke-linecap="butt" stroke-miterlimit="10.0"><path d="M 284.2000,104.6071 l 8.0000,-8.0000 l 8.0000,8.0000 h -4.0000 v 8.0000 h -8.0000 v -8.0000 Z"/></g><g stroke-linejoin="miter" stroke-opacity="1.0" fill-opacity="1.0" stroke="rgb(0,0,0)" stroke-width="1.5129293127821548" fill="rgb(255,255,255)" stroke-linecap="butt" stroke-miterlimit="10.0"><path d="M 313.0000,91.8071 c 0.0000,-9.0000 -18.0000,-13.5000 -18.0000 -27.0000c 0.0000,-11.2500 18.0000,-11.2500 18.0000 -0.0000c 0.0000,-11.2500 18.0000,-11.2500 18.0000 0.0000c 0.0000,13.5000 -18.0000,18.0000 -18.0000 27.0000Z"/></g><g stroke-linejoin="miter" stroke-opacity="1.0" fill-opacity="0.0" stroke="rgb(0,0,0)" stroke-width="1.5129293127821548" fill="rgb(0,0,0)" stroke-linecap="butt" stroke-miterlimit="10.0"><defs><clipPath id="symbolsmyClip1"><path d="M 313.0000,91.8071 c 0.0000,-9.0000 -18.0000,-13.5000 -18.0000 -27.0000c 0.0000,-11.2500 18.0000,-11.2500 18.0000 -0.0000c 0.0000,-11.2500 18.0000,-11.2500 18.0000 0.0000c 0.0000,13.5000 -18.0000,18.0000 -18.0000 27.0000Z"/></clipPath></defs><g clip-path="url(#symbolsmyClip1)"><path d="M 277.0000,107.0883 l 72.0000,-72.0000 "/></g></g><g stroke-linejoin="miter" stroke-opacity="1.0" fill-opacity="0.0" stroke="rgb(0,0,0)" stroke-width="1.5129293127821548" fill="rgb(0,0,0)" stroke-linecap="butt" stroke-miterlimit="10.0"><defs><clipPath id="symbolsmyClip2"><path d="M 313.0000,91.8071 c 0.0000,-9.0000 -18.0000,-13.5000 -18.0000 -27.0000c 0.0000,-11.2500 18.0000,-11.2500 18.0000 -0.0000c 0.0000,-11.2500 18.0000,-11.2500 18.0000 0.0000c 0.0000,13.5000 -18.0000,18.0000 -18.0000 27.0000Z"/></clipPath></defs><g clip-path="url(#symbolsmyClip2)"><path d="M 277.0000,35.0883 l 72.0000,72.0000 "/></g></g><g stroke-linejoin="miter" stroke-opacity="1.0" fill-opacity="1.0" stroke="rgb(0,0,0)" stroke-width="1.5129293127821548" fill="rgb(255,255,255)" stroke-linecap="butt" stroke-miterlimit="10.0"><path d="M 331.0000,33.5696 c 0.0000,-9.9411 -8.0589,-18.0000 -18.0000 -18.0000c -9.9411,-0.0000 -18.0000,8.0589 -18.0000 18.0000c -0.0000,9.9411 8.0589,18.0000 18.0000 18.0000c 9.9411,0.0000 18.0000,-8.0589 18.0000 -18.0000Z"/></g><g stroke-linejoin="miter" stroke-opacity="1.0" fill-opacity="1.0" stroke="rgb(0,0,0)" stroke-width="1.5129293127821548" fill="rgb(255,255,255)" stroke-linecap="butt" stroke-miterlimit="10.0"><path d="M 265.0000,77.9447 l 0.0000,-27.7128 l -24.0000,-13.8564 l -24.0000,13.8564 l -0.0000,27.7128 l 24.0000,13.8564 Z"/></g><g stroke-linejoin="miter" stroke-opacity="1.0" fill-opacity="1.0" stroke="rgb(0,0,0)" stroke-width="1.5129293127821548" fill="rgb(255,255,255)" stroke-linecap="butt" stroke-miterlimit="10.0"><path d="M 223.0000,64.0883 l 18.0000,-18.0000 l 18.0000,18.0000 h -9.0000 v 18.0000 h -18.0000 v -18.0000 Z"/></g><g stroke-linejoin="miter" stroke-opacity="1.0" fill-opacity="1.0" stroke="rgb(0,0,0)" stroke-width="1.5129293127821548" fill="rgb(255,255,255)" stroke-linecap="butt" stroke-miterlimit="10.0"><path d="M 242.4164,71.1412 h 4.5836 l -3.7082,2.6942 l 1.4164,4.3593 l -3.7082,-2.6942 l -3.7082,2.6942 l 1.4164,-4.3593 l -3.7082,-2.6942 l 4.5836,-0.0000 l 1.4164,-4.3593 Z"/></g><g stroke-linejoin="miter" stroke-opacity="1.0" fill-opacity="1.0" stroke="rgb(0,0,0)" stroke-width="1.5129293127821548" fill="rgb(255,255,255)" stroke-linecap="butt" stroke-miterlimit="10.0"><path d="M 235.0000,55.9820 l 6.0000,-6.0000 l 6.0000,6.0000 h -3.0000 v 6.0000 h -6.0000 v -6.0000 Z"/></g><g stroke-linejoin="miter" stroke-opacity="1.0" fill-opacity="1.0" stroke="rgb(0,0,0)" stroke-width="1.5129293127821548" fill="rgb(255,255,255)" stroke-linecap="butt" stroke-miterlimit="10.0"><path d="M 193.0000,77.9447 l 0.0000,-27.7128 l -24.0000,-13.8564 l -24.0000,13.8564 l -0.0000,27.7128 l 24.0000,13.8564 Z"/></g><g stroke-linejoin="miter" stroke-opacity="1.0" fill-opacity="1.0" stroke="rgb(0,0,0)" stroke-width="1.5129293127821548" fill="rgb(255,255,255)" stroke-linecap="butt" stroke-miterlimit="10.0"><path d="M 177.4000,64.0883 l 6.0000,-6.0000 l 6.0000,6.0000 h -3.0000 v 6.0000 h -6.0000 v -6.0000 Z"/></g><g stroke-linejoin="miter" stroke-opacity="1.0" fill-opacity="1.0" stroke="rgb(0,0,0)" stroke-width="1.5129293127821548" fill="rgb(255,255,255)" stroke-linecap="butt" stroke-miterlimit="10.0"><path d="M 163.0000,64.0883 l 6.0000,-6.0000 l 6.0000,6.0000 h -3.0000 v 6.0000 h -6.0000 v -6.0000 Z"/></g><g stroke-linejoin="miter" stroke-opacity="1.0" fill-opacity="1.0" stroke="rgb(0,0,0)" stroke-width="1.5129293127821548" fill="rgb(255,255,255)" stroke-linecap="butt" stroke-miterlimit="10.0"><path d="M 148.6000,64.0883 l 6.0000,-6.0000 l 6.0000,6.0000 h -3.0000 v 6.0000 h -6.0000 v -6.0000 Z"/></g><g stroke-linejoin="miter" stroke-opacity="1.0" fill-opacity="1.0" stroke="rgb(0,0,0)" stroke-width="1.5129293127821548" fill="rgb(255,255,255)" stroke-linecap="butt" stroke-miterlimit="10.0"><path d="M 111.4000,78.4883 l 12.0000,-6.0000 v 24.0000 l -12.0000,-6.0000 l -12.0000,6.0000 l 0.0000,-24.0000 Z"/></g><g stroke-linejoin="miter" stroke-opacity="1.0" fill-opacity="1.0" stroke="rgb(0,0,0)" stroke-width="1.5129293127821548" fill="rgb(255,255,255)" stroke-linecap="butt" stroke-miterlimit="10.0"><path d="M 82.6000,78.4883 l 12.0000,-6.0000 v 24.0000 l -12.0000,-6.0000 l -12.0000,6.0000 l 0.0000,-24.0000 Z"/></g><g stroke-linejoin="miter" stroke-opacity="1.0" fill-opacity="1.0" stroke="rgb(0,0,0)" stroke-width="1.5129293127821548" fill="rgb(255,255,255)" stroke-linecap="butt" stroke-miterlimit="10.0"><path d="M 115.0000,49.6883 c 0.0000,-9.9411 -8.0589,-18.0000 -18.0000 -18.0000c -9.9411,-0.0000 -18.0000,8.0589 -18.0000 18.0000c -0.0000,9.9411 8.0589,18.0000 18.0000 18.0000c 9.9411,0.0000 18.0000,-8.0589 18.0000 -18.0000Z"/></g><g stroke-linejoin="miter" stroke-opacity="1.0" fill-opacity="1.0" stroke="rgb(0,0,0)" stroke-width="1.5129293127821548" fill="rgb(255,255,255)" stroke-linecap="butt" stroke-miterlimit="10.0"><path d="M 43.0000,84.4883 l -18.0000,-18.0000 l -18.0000,18.0000 l 18.0000,18.0000 Z"/></g><g stroke-linejoin="miter" stroke-opacity="1.0" fill-opacity="1.0" stroke="rgb(0,0,0)" stroke-width="1.5129293127821548" fill="rgb(255,255,255)" stroke-linecap="butt" stroke-miterlimit="10.0"><path d="M 31.0000,37.6883 h 12.0000 v 12.0000 h -12.0000 l 0.0000,12.0000 l -12.0000,0.0000 l -0.0000,-12.0000 l -12.0000,0.0000 l -0.0000,-12.0000 l 12.0000,-0.0000 l -0.0000,-12.0000 l 12.0000,-0.0000 Z"/></g></svg>
