<svg xmlns="http://www.w3.org/2000/svg" viewBox="0 0 344.044 97.425"><path d="M314.66 79.884c14.596 0 26.384-10.952 26.384-25.999V30.821C339.945 16.816 328.528 4.69 314.66 4.69c-14.596 0-26.319 11.084-26.319 26.131 0 0-.072 22.244 0 23.064 1.221 13.879 12.538 25.999 26.319 25.999z" fill="#f8cd0e"/><path d="M274.155 42.287h14.161c-.003-.002 0-14.161 0-14.161.013-7.821-6.34-14.161-14.161-14.161s-14.161 6.34-14.161 14.161 6.34 14.161 14.161 14.161z" fill="#fff"/><path d="M274.155 42.287h14.161c-.003.002 0 14.161 0 14.161.013 7.821-6.34 14.161-14.161 14.161s-14.161-6.34-14.161-14.161 6.34-14.161 14.161-14.161zm40.521 50.782V79.884" fill="#fff"/><path d="M12.919 63.02c0 14.596 10.952 26.384 25.999 26.384h23.064c14.005-1.099 26.131-12.516 26.131-26.384 0-14.596-11.084-26.319-26.131-26.319 0 0-22.244-.072-23.064 0-13.879 1.221-25.999 12.538-25.999 26.319z" fill="#f8cd0e"/><path d="M50.517 22.515v14.161c.002-.003 14.161 0 14.161 0 7.821.013 14.161-6.34 14.161-14.161S72.498 8.354 64.677 8.354s-14.16 6.34-14.16 14.161zm0 0v14.161c-.002-.003-14.161 0-14.161 0-7.821.013-14.161-6.34-14.161-14.161s6.34-14.161 14.161-14.161 14.161 6.34 14.161 14.161zM-.265 63.036h13.184" fill="#fff"/><path d="M344.035 30.587c-1.251-15.935-14.43-28.897-29.376-28.897-11.862 0-21.867 6.663-26.521 16.505a17.246 17.246 0 0 0-1.832-2.19 17.059 17.059 0 0 0-12.151-5.039c-9.463 0-17.161 7.698-17.161 17.161 0 5.875 2.971 11.066 7.486 14.16-4.515 3.095-7.486 8.285-7.486 14.16 0 9.463 7.698 17.161 17.161 17.161 4.592 0 8.907-1.79 12.151-5.039a17.28 17.28 0 0 0 2.315-2.895c4.731 9.507 13.887 16.33 24.054 17.124v10.271h4V82.812c15.501-.992 27.368-13.337 27.368-28.927V30.821l-.008-.234zM314.659 7.689c2.885 0 5.687.622 8.292 1.741 1.354 7.536-3.594 14.459-3.652 14.537l3.227 2.364c.25-.341 4.809-6.674 4.676-14.513 5.94 4.199 10.185 11.199 10.842 19.123v8.345h-46.725c.006-2.932.014-5.9.022-8.466 0-13.186 10.024-23.131 23.318-23.131zm23.366 47.003h-46.58a25.156 25.156 0 0 1-.111-.998 80.072 80.072 0 0 1-.019-1.881v-6.526h46.729v8.599c0 .27-.011.538-.019.806zm-75.031-26.565c0-6.154 5.007-11.161 11.161-11.161 2.987 0 5.795 1.164 7.905 3.278a11.051 11.051 0 0 1 3.255 7.882l-.001 11.161h-11.159c-6.154 0-11.161-5.007-11.161-11.16zm19.067 36.203a11.095 11.095 0 0 1-7.905 3.278c-6.154 0-11.161-5.007-11.161-11.161 0-6.153 5.007-11.16 11.161-11.16h11.154c-.001 2.216 0 4.216.006 5.761v5.404a11.059 11.059 0 0 1-3.255 7.878zm32.598 12.554c-9.494 0-18.155-6.831-21.713-16.192h44.133c-2.813 9.579-11.519 16.192-22.42 16.192z"/><circle cx="308.273" cy="25.148" r="4.573"/><path d="M74.603 36.496c4.37-3.113 7.235-8.213 7.235-13.98 0-9.463-7.698-17.161-17.161-17.161-5.875 0-11.066 2.971-14.16 7.486-3.095-4.515-8.286-7.486-14.161-7.486-9.462 0-17.16 7.698-17.16 17.161 0 4.58 1.781 8.888 5.016 12.129.895.897 1.878 1.67 2.919 2.337-9.507 4.731-16.33 13.887-17.125 24.054H-.265v4H9.991c.992 15.501 13.337 27.368 28.927 27.368H62.1l.117-.009c15.935-1.252 28.897-14.43 28.897-29.376 0-11.864-6.665-21.871-16.511-26.523zm-9.926-25.142c6.154 0 11.161 5.007 11.161 11.161 0 6.153-4.996 11.16-11.138 11.16h-3.253l-7.931-.001V22.515c.001-6.154 5.008-11.161 11.161-11.161zM28.459 30.406a11.1 11.1 0 0 1-3.264-7.891c0-6.154 5.007-11.161 11.16-11.161 6.154 0 11.161 5.007 11.161 11.161V33.67c-.775-.001-9.226.006-9.226.006h-1.959a11.052 11.052 0 0 1-7.872-3.27zm-12.54 32.613c0-9.494 6.83-18.155 16.192-21.713v44.133c-9.579-2.813-16.192-11.519-16.192-22.42zm22.192 23.366v-46.58c.331-.042.664-.082.998-.111.104-.004.506-.013 1.995-.019l5.741-.001h.672v46.729h-8.598c-.272.001-.539-.01-.808-.018zm46.459-18.71c-9.405-1.987-17.708 3.985-18.098 4.272l2.367 3.225c.079-.058 6.925-4.996 14.456-3.671-3.527 8.005-11.8 14.104-21.434 14.903h-8.345V39.678c4.578.009 8.459.022 8.466.022 13.187 0 23.132 10.024 23.132 23.318 0 1.585-.191 3.142-.544 4.657z"/><circle cx="67.656" cy="56.633" r="4.573"/><path d="M142.228 93.161h-.698v-4h.697c1.5-.001 3.174-.144 4.976-.424l.615 3.953c-2.004.312-3.885.47-5.59.471zm-4.699 0h-6v-4h6v4zm-10 0h-6v-4h6v4zm107.596-.407h-6v-4h6v4zm-10 0h-6v-4h6v4zm-10 0h-6v-4h6v4zm-10 0h-2.312c-1.205 0-2.532-.097-3.945-.286l.533-3.965a25.77 25.77 0 0 0 3.412.251h2.312v4zm-53.227-.87l-.92-3.893a65.294 65.294 0 0 0 5.6-1.604l1.266 3.795a68.798 68.798 0 0 1-5.946 1.702zm42.851-.178a64.849 64.849 0 0 1-5.963-1.696l1.27-3.793a60.406 60.406 0 0 0 5.59 1.591l-.897 3.898zm-33.047-2.923l-1.457-3.725a84.861 84.861 0 0 0 5.385-2.328l1.713 3.615a87.827 87.827 0 0 1-5.641 2.438zm23.223-.179a92.579 92.579 0 0 1-5.635-2.438l1.709-3.617a87.055 87.055 0 0 0 5.389 2.333l-1.463 3.722zm-13.923-4.094l-1.873-3.535c.69-.365 1.38-.743 2.064-1.13l1.182-1.943c.351.213.703.425 1.059.634.264-.159.525-.32.787-.481l.9 1.454c.786.442 1.579.873 2.372 1.29l-1.861 3.541a96.088 96.088 0 0 1-2.176-1.179 90.54 90.54 0 0 1-2.454 1.349zm8.758-5.291l-2.264-3.299a81.68 81.68 0 0 0 4.712-3.484l2.494 3.127a85.481 85.481 0 0 1-4.942 3.656zm-12.912-.095a93.88 93.88 0 0 1-4.99-3.571l2.436-3.174a89.141 89.141 0 0 0 4.775 3.417l-2.221 3.328zm-8.181-6.143a79.102 79.102 0 0 1-4.546-4.156l2.814-2.842a75.594 75.594 0 0 0 4.315 3.945l-2.583 3.053zm29.179-.065l-2.654-2.992a67.74 67.74 0 0 0 4.192-4.049l2.902 2.752a71.184 71.184 0 0 1-4.44 4.289zm-36.567-7.072a63.236 63.236 0 0 1-3.916-4.801l3.223-2.369a59.655 59.655 0 0 0 3.668 4.496l-2.975 2.674zm43.75-.294l-3.07-2.564a55.085 55.085 0 0 0 3.476-4.626l3.322 2.227a60.122 60.122 0 0 1-3.728 4.963zm-49.998-7.935a49.51 49.51 0 0 1-2.981-5.488l3.631-1.678a45.377 45.377 0 0 0 2.741 5.043l-3.391 2.123zm55.9-.564l-3.486-1.961a44.983 44.983 0 0 0 2.491-5.165l3.709 1.498a49.002 49.002 0 0 1-2.714 5.628zm-60.46-8.803a40.779 40.779 0 0 1-1.628-6.083l3.934-.727c.338 1.83.832 3.675 1.468 5.483l-3.774 1.327zm64.56-.773l-3.832-1.146a39.029 39.029 0 0 0 1.232-5.559l3.959.576a43.004 43.004 0 0 1-1.359 6.129zm-66.725-9.484a37.92 37.92 0 0 1-.099-2.748c0-1.198.062-2.408.187-3.595l3.979.416a30.87 30.87 0 0 0-.165 3.181c-.001.811.029 1.636.089 2.455l-3.991.291zm68.482-.814l-3.996-.186c.027-.579.04-1.161.04-1.747a30.62 30.62 0 0 0-.246-3.89l3.967-.508c.187 1.452.28 2.932.279 4.398 0 .649-.014 1.294-.044 1.933zm-63.798-8.811l-3.896-.904a34.12 34.12 0 0 1 2.011-6.038l3.66 1.613a30.161 30.161 0 0 0-1.775 5.329zm58.889-.691a30.09 30.09 0 0 0-1.899-5.285l3.621-1.699a34.275 34.275 0 0 1 2.153 5.988l-3.875.996zm-55.392-7.968l-3.432-2.055a34.516 34.516 0 0 1 3.756-5.132l2.996 2.65a30.425 30.425 0 0 0-3.32 4.537zm51.694-.605a30.581 30.581 0 0 0-3.425-4.458l2.934-2.719a34.626 34.626 0 0 1 3.874 5.042l-3.383 2.135zm-45.721-6.583l-2.648-2.998a34.323 34.323 0 0 1 5.137-3.753l2.049 3.436a30.288 30.288 0 0 0-4.538 3.315zm39.584-.463a30.54 30.54 0 0 0-4.614-3.21l1.971-3.48a34.463 34.463 0 0 1 5.222 3.632l-2.579 3.058zm-31.718-4.571l-1.611-3.662a34.187 34.187 0 0 1 6.038-2.007l.902 3.896a30.181 30.181 0 0 0-5.329 1.773zm23.73-.28a30.03 30.03 0 0 0-5.369-1.645l.809-3.918a34.207 34.207 0 0 1 6.086 1.865l-1.526 3.698zm-14.702-2.11l-.414-3.979a34.956 34.956 0 0 1 6.356-.073l-.32 3.986a31.225 31.225 0 0 0-5.622.066z" fill="#f8cd0e"/></svg>