<svg width="89" height="116" viewBox="0 0 89 116" fill="none" xmlns="http://www.w3.org/2000/svg">
<path d="M33.9238 21.2229H63.1408V3.78491L54.9348 9.10591L48.5328 3.78491L42.1308 9.10591L33.9238 3.78491V21.2229Z" fill="#F8CD0E"/>
<path fill-rule="evenodd" clip-rule="evenodd" d="M64.8908 0.564453V22.9729H32.1738V0.564667L42.0025 6.93705L48.5328 1.50936L55.0631 6.93701L64.8908 0.564453ZM35.6738 7.00514V19.4729H61.3908V7.00536L54.8065 11.2748L48.5328 6.06045L42.2592 11.2748L35.6738 7.00514Z" fill="black"/>
<path d="M46.012 58.3526V45.7811C46.012 43.2948 45.2747 40.8642 43.8933 38.7968C42.512 36.7295 40.5486 35.1182 38.2514 34.1667C35.9543 33.2152 33.4266 32.9662 30.988 33.4513C28.5494 33.9363 26.3094 35.1337 24.5512 36.8918C22.7931 38.65 21.5958 40.89 21.1107 43.3286C20.6256 45.7672 20.8746 48.2949 21.8261 50.592C22.7776 52.8891 24.3889 54.8525 26.4563 56.2339C28.5236 57.6153 30.9542 58.3526 33.4406 58.3526H46.012Z" fill="white"/>
<path d="M71.6146 54.7628C73.0873 53.3056 74.1771 51.5069 74.787 49.5269C75.3969 47.5468 75.5079 45.4468 75.1103 43.4134C74.7126 41.3801 73.8186 39.4766 72.5077 37.8722C71.1968 36.2678 69.5097 35.0122 67.5965 34.2172C65.6832 33.4222 63.6031 33.1124 61.5413 33.3153C59.4794 33.5183 57.4996 34.2277 55.7781 35.3804C54.0565 36.5331 52.6465 38.0935 51.6736 39.9227C50.7006 41.7519 50.1949 43.7932 50.2012 45.865V58.4364H62.7727C64.4157 58.4359 66.0424 58.1111 67.5597 57.4807C69.0769 56.8503 70.4549 55.9267 71.6146 54.7628Z" fill="white"/>
<path d="M12.1387 87.1831C12.1387 98.9304 19.4301 108.219 29.8923 110.929V64.0796C19.6257 67.6415 12.1387 76.9443 12.1387 87.1831Z" fill="#F8CD0E"/>
<path d="M59.6297 111.809C63.338 111.497 66.9445 110.436 70.2312 108.69C73.5179 106.945 76.4166 104.551 78.7523 101.654C76.1924 102.326 73.5013 102.318 70.9458 101.629C68.3902 100.941 66.0591 99.5964 64.1834 97.7291L67.1167 94.7678C69.1682 96.8112 71.9383 97.9699 74.8336 97.996C77.729 98.0222 80.5195 96.9135 82.6075 94.9075C83.5354 92.4381 84.0086 89.8211 84.0043 87.1831C84.0895 83.9576 83.5214 80.7482 82.3342 77.7479C81.147 74.7476 79.3653 72.0184 77.0961 69.7244C74.827 67.4305 72.1173 65.6192 69.1301 64.3995C66.1429 63.1798 62.9398 62.5768 59.7136 62.6269H50.2012V111.809H59.6297ZM65.7199 77.5171C66.5907 77.5171 67.442 77.7755 68.1658 78.2596C68.8897 78.7437 69.4537 79.4317 69.7863 80.2365C70.1189 81.0413 70.2052 81.9267 70.0343 82.7806C69.8634 83.6345 69.4429 84.4185 68.8262 85.0333C68.2094 85.6481 67.4241 86.066 66.5697 86.2342C65.7153 86.4024 64.8301 86.3133 64.0264 85.9781C63.2226 85.6429 62.5364 85.0768 62.0546 84.3514C61.5728 83.626 61.3171 82.7739 61.3199 81.9031C61.3199 81.3259 61.4338 80.7544 61.6551 80.2214C61.8764 79.6883 62.2007 79.2042 62.6095 78.7967C63.0182 78.3893 63.5034 78.0665 64.0371 77.8469C64.5709 77.6273 65.1427 77.5152 65.7199 77.5171Z" fill="#F8CD0E"/>
<path d="M36.5125 62.627C35.697 62.6957 34.8857 62.8076 34.082 62.9622V111.697C34.8223 111.767 35.5906 111.809 36.3589 111.809H46.0109V62.613H36.5125V62.627Z" fill="#F8CD0E"/>
<path d="M65.7203 86.289C66.5905 86.289 67.4412 86.031 68.1648 85.5475C68.8884 85.064 69.4524 84.3768 69.7854 83.5728C70.1184 82.7688 70.2055 81.8841 70.0358 81.0306C69.866 80.1771 69.4469 79.3931 68.8316 78.7777C68.2162 78.1624 67.4322 77.7433 66.5787 77.5736C65.7252 77.4038 64.8405 77.4909 64.0365 77.8239C63.2325 78.157 62.5453 78.7209 62.0618 79.4445C61.5784 80.1681 61.3203 81.0188 61.3203 81.889C61.3203 83.056 61.7839 84.1751 62.609 85.0003C63.4342 85.8254 64.5534 86.289 65.7203 86.289Z" fill="black"/>
<path d="M70.7353 60.5875C72.1453 59.8204 73.4387 58.8562 74.5765 57.724C76.269 56.0257 77.5774 53.984 78.4134 51.7369C79.2494 49.4897 79.5937 47.0894 79.4228 44.6978C79.252 42.3063 78.5701 39.9792 77.4231 37.8737C76.2762 35.7682 74.6909 33.9333 72.7742 32.4928C70.8576 31.0522 68.6542 30.0397 66.3128 29.5234C63.9714 29.0071 61.5465 28.9992 59.2017 29.5001C56.857 30.001 54.647 30.9991 52.721 32.427C50.7949 33.8549 49.1976 35.6794 48.0369 37.7773C46.771 35.4408 44.9678 33.4387 42.7759 31.9363C40.584 30.4338 38.0663 29.474 35.4305 29.1361C32.7946 28.7982 30.1163 29.0918 27.6162 29.9927C25.1162 30.8936 22.8662 32.376 21.0519 34.3176C19.2375 36.2592 17.9108 38.6044 17.1812 41.1597C16.4515 43.7149 16.3399 46.407 16.8555 49.0139C17.3711 51.6208 18.4991 54.0678 20.1464 56.153C21.7938 58.2381 23.9133 59.9017 26.3302 61.0065C16.2731 65.3367 8.92576 74.6954 8.05973 85.1157H0.181641V89.3062H8.04576C8.43678 96.5443 11.5984 103.354 16.8751 108.324C22.1518 113.294 29.1388 116.042 36.3873 116H59.8819C75.4984 114.77 88.2794 101.85 88.2794 87.183C88.3481 81.5043 86.7134 75.9352 83.5861 71.1946C80.4589 66.454 75.9827 62.7593 70.7353 60.5875ZM29.8921 110.971C19.4299 108.177 12.1385 98.9303 12.1385 87.2249C12.1385 76.9862 19.6673 67.6694 29.8921 64.1214V110.971ZM46.0115 111.809H36.3873C35.6191 111.809 34.8508 111.809 34.1105 111.697V62.9621C34.9142 62.8074 35.7255 62.6955 36.541 62.6268H46.0394L46.0115 111.809ZM46.0115 58.4084H33.44C30.1174 58.4016 26.931 57.0869 24.5702 54.7488C23.0974 53.2915 22.0076 51.4929 21.3977 49.5129C20.7879 47.5328 20.6768 45.4327 21.0745 43.3994C21.4721 41.3661 22.3662 39.4626 23.677 37.8581C24.9879 36.2537 26.675 34.9982 28.5883 34.2032C30.5015 33.4082 32.5816 33.0984 34.6435 33.3013C36.7054 33.5042 38.6852 34.2136 40.4067 35.3664C42.1283 36.5191 43.5382 38.0795 44.5112 39.9087C45.4841 41.7378 45.9899 43.7791 45.9835 45.851L46.0115 58.4084ZM50.2019 45.837C50.2019 43.3506 50.9392 40.9201 52.3206 38.8527C53.702 36.7853 55.6654 35.174 57.9625 34.2225C60.2596 33.271 62.7873 33.0221 65.2259 33.5071C67.6645 33.9922 69.9045 35.1895 71.6627 36.9477C73.4208 38.7058 74.6181 40.9458 75.1032 43.3844C75.5883 45.8231 75.3393 48.3508 74.3878 50.6479C73.4363 52.945 71.825 54.9084 69.7577 56.2898C67.6903 57.6711 65.2597 58.4084 62.7734 58.4084H50.2019V45.837ZM67.1175 94.7678L64.1842 97.729C66.0598 99.5963 68.391 100.941 70.9465 101.629C73.5021 102.318 76.1932 102.326 78.753 101.654C76.4136 104.544 73.5131 106.929 70.2266 108.667C66.9401 110.405 63.3356 111.46 59.6305 111.767H50.2019V62.6129H59.7143C62.9487 62.5513 66.1621 63.1462 69.1601 64.3616C72.1581 65.5771 74.8785 67.3879 77.1569 69.6845C79.4352 71.9811 81.2242 74.7159 82.4157 77.7235C83.6071 80.7312 84.1764 83.9492 84.0889 87.183C84.0932 89.821 83.6199 92.438 82.6921 94.9075C80.6002 96.9388 77.7918 98.0633 74.8761 98.0372C71.9604 98.011 69.1726 96.8363 67.1175 94.7678Z" fill="black"/>
</svg>