<svg width="89" height="124" viewBox="0 0 89 124" fill="none" xmlns="http://www.w3.org/2000/svg">
<path d="M32.7363 29.2232H62.7433V11.3132L54.3153 16.7782L47.7403 11.3132L41.1643 16.7782L32.7363 11.3132V29.2232Z" fill="#5BA0D4"/>
<path fill-rule="evenodd" clip-rule="evenodd" d="M30.9863 8.09253L41.0361 14.6091L47.7404 9.03749L54.4436 14.6091L64.4933 8.09253V30.973H30.9863V8.09253ZM60.9933 14.5335L54.187 18.9469L47.7402 13.5885L41.2926 18.9469L34.4863 14.5335V27.473H60.9933V14.5335Z" fill="black"/>
<path d="M72.7971 11.666L47.5011 21.331L22.2051 11.666L47.5011 2L72.7971 11.666Z" fill="#5BA0D4"/>
<path fill-rule="evenodd" clip-rule="evenodd" d="M47.5017 0.126709L77.7006 11.6662L47.5017 23.2045L17.3027 11.6662L47.5017 0.126709ZM27.1086 11.666L47.5017 19.4577L67.8947 11.666L47.5017 3.87353L27.1086 11.666Z" fill="black"/>
<path fill-rule="evenodd" clip-rule="evenodd" d="M49.0767 12.75C49.0776 12.752 49.0786 12.7539 47.5019 13.5132C45.9252 14.2725 45.9261 14.2744 45.927 14.2763L45.9288 14.28L45.9322 14.2869L45.9385 14.2995L45.9488 14.3194C45.9547 14.3304 45.9586 14.3372 45.9603 14.3401C45.9637 14.3459 45.9589 14.3372 45.9449 14.318C45.9166 14.2793 45.8536 14.2019 45.7472 14.1135C45.5516 13.951 45.1418 13.6926 44.3663 13.6322C42.7345 13.505 39.2698 14.2507 32.9464 19.2364C26.346 24.4405 21.4378 26.1483 18.0073 26.4301C16.2899 26.5711 14.9737 26.3514 14.0423 26.0593C13.5791 25.914 13.2176 25.753 12.9548 25.6154C12.8235 25.5466 12.7171 25.4839 12.6351 25.432C12.5941 25.4061 12.5592 25.383 12.5303 25.3631C12.5159 25.3532 12.5029 25.3441 12.4915 25.336L12.4755 25.3244L12.4683 25.3192L12.465 25.3167C12.4633 25.3155 12.4617 25.3143 13.5049 23.9092C14.5481 22.5041 14.5465 22.503 14.545 22.5018L14.542 22.4996L14.5363 22.4955L14.5264 22.4883L14.5119 22.4781C14.5046 22.4731 14.5022 22.4717 14.5047 22.4732C14.5096 22.4763 14.534 22.4915 14.5783 22.5147C14.6667 22.561 14.8358 22.6401 15.0895 22.7196C15.5919 22.8772 16.4553 23.0458 17.7208 22.9418C20.256 22.7336 24.5268 21.4179 30.7794 16.488C37.309 11.3397 41.6638 9.91093 44.6383 10.1428C46.1659 10.2618 47.2559 10.8163 47.9843 11.4218C48.3399 11.7174 48.595 12.0128 48.7693 12.2509C48.8565 12.3701 48.9241 12.4758 48.9746 12.5613C48.9999 12.6042 49.021 12.6421 49.0382 12.6744C49.0468 12.6906 49.0544 12.7054 49.0611 12.7186L49.0705 12.7374L49.0747 12.7459L49.0767 12.75Z" fill="black"/>
<path d="M45.9124 66.3526V53.7811C45.9124 51.2948 45.1751 48.8642 43.7937 46.7968C42.4123 44.7295 40.449 43.1182 38.1518 42.1667C35.8547 41.2152 33.327 40.9662 30.8884 41.4513C28.4498 41.9363 26.2098 43.1337 24.4516 44.8918C22.6935 46.65 21.4962 48.89 21.0111 51.3286C20.526 53.7672 20.775 56.2949 21.7265 58.592C22.678 60.8891 24.2893 62.8525 26.3566 64.2339C28.424 65.6153 30.8546 66.3526 33.341 66.3526H45.9124Z" fill="white"/>
<path d="M71.5149 62.7628C72.9877 61.3056 74.0775 59.5069 74.6874 57.5269C75.2973 55.5468 75.4083 53.4468 75.0107 51.4134C74.613 49.3801 73.719 47.4766 72.4081 45.8722C71.0972 44.2678 69.4101 43.0122 67.4969 42.2172C65.5836 41.4222 63.5035 41.1124 61.4416 41.3153C59.3798 41.5183 57.4 42.2277 55.6784 43.3804C53.9569 44.5331 52.5469 46.0935 51.574 47.9227C50.601 49.7519 50.0952 51.7932 50.1016 53.865V66.4364H62.673C64.3161 66.4359 65.9428 66.1111 67.4601 65.4807C68.9773 64.8503 70.3553 63.9267 71.5149 62.7628Z" fill="white"/>
<path d="M12.0391 95.1831C12.0391 106.93 19.3305 116.219 29.7927 118.929V72.0796C19.526 75.6415 12.0391 84.9443 12.0391 95.1831Z" fill="#F8CD0E"/>
<path d="M59.5301 119.809C63.2384 119.497 66.8448 118.436 70.1316 116.69C73.4183 114.945 76.317 112.551 78.6527 109.654C76.0928 110.326 73.4017 110.318 70.8462 109.629C68.2906 108.941 65.9594 107.596 64.0838 105.729L67.0171 102.768C69.0686 104.811 71.8387 105.97 74.734 105.996C77.6294 106.022 80.4199 104.914 82.5079 102.908C83.4358 100.438 83.909 97.8211 83.9047 95.1831C83.9899 91.9576 83.4218 88.7482 82.2346 85.7479C81.0474 82.7476 79.2656 80.0184 76.9965 77.7244C74.7273 75.4305 72.0177 73.6192 69.0305 72.3995C66.0432 71.1798 62.8402 70.5768 59.6139 70.6269H50.1016V119.809H59.5301ZM65.6203 85.5171C66.4911 85.5171 67.3424 85.7755 68.0662 86.2596C68.7901 86.7437 69.3541 87.4317 69.6867 88.2365C70.0193 89.0413 70.1056 89.9267 69.9347 90.7806C69.7638 91.6345 69.3433 92.4185 68.7266 93.0333C68.1098 93.6481 67.3245 94.066 66.4701 94.2342C65.6157 94.4024 64.7305 94.3133 63.9268 93.9781C63.123 93.6429 62.4368 93.0768 61.955 92.3514C61.4732 91.626 61.2175 90.7739 61.2203 89.9031C61.2203 89.3259 61.3342 88.7544 61.5555 88.2214C61.7768 87.6883 62.1011 87.2042 62.5099 86.7967C62.9186 86.3893 63.4038 86.0665 63.9375 85.8469C64.4713 85.6273 65.0431 85.5152 65.6203 85.5171Z" fill="#F8CD0E"/>
<path d="M36.4129 70.627C35.5974 70.6957 34.7861 70.8076 33.9824 70.9622V119.697C34.7227 119.767 35.491 119.809 36.2592 119.809H45.9113V70.613H36.4129V70.627Z" fill="#F8CD0E"/>
<path d="M65.6207 94.289C66.4909 94.289 67.3416 94.031 68.0652 93.5475C68.7888 93.064 69.3527 92.3768 69.6858 91.5728C70.0188 90.7688 70.1059 89.8841 69.9362 89.0306C69.7664 88.1771 69.3473 87.3931 68.732 86.7777C68.1166 86.1624 67.3326 85.7433 66.4791 85.5736C65.6256 85.4038 64.7409 85.4909 63.9369 85.8239C63.1329 86.157 62.4457 86.7209 61.9622 87.4445C61.4788 88.1681 61.2207 89.0188 61.2207 89.889C61.2207 91.056 61.6843 92.1751 62.5094 93.0003C63.3346 93.8254 64.4538 94.289 65.6207 94.289Z" fill="black"/>
<path d="M70.6356 68.5875C72.0456 67.8204 73.3391 66.8562 74.4769 65.724C76.1694 64.0257 77.4778 61.984 78.3138 59.7369C79.1498 57.4897 79.494 55.0894 79.3232 52.6978C79.1524 50.3063 78.4705 47.9792 77.3235 45.8737C76.1766 43.7682 74.5913 41.9333 72.6746 40.4928C70.7579 39.0522 68.5546 38.0397 66.2132 37.5234C63.8718 37.0071 61.4469 36.9992 59.1021 37.5001C56.7574 38.001 54.5474 38.9991 52.6214 40.427C50.6953 41.8549 49.098 43.6794 47.9372 45.7773C46.6714 43.4408 44.8681 41.4387 42.6763 39.9363C40.4844 38.4338 37.9667 37.474 35.3309 37.1361C32.695 36.7982 30.0166 37.0918 27.5166 37.9927C25.0166 38.8936 22.7666 40.376 20.9523 42.3176C19.1379 44.2592 17.8112 46.6044 17.0816 49.1597C16.3519 51.7149 16.2403 54.407 16.7559 57.0139C17.2714 59.6208 18.3995 62.0678 20.0468 64.153C21.6942 66.2381 23.8137 67.9017 26.2306 69.0065C16.1735 73.3367 8.82615 82.6954 7.96012 93.1157H0.0820312V97.3062H7.94615C8.33717 104.544 11.4988 111.354 16.7755 116.324C22.0522 121.294 29.0392 124.042 36.2877 124H59.7823C75.3988 122.77 88.1798 109.85 88.1798 95.183C88.2485 89.5043 86.6137 83.9352 83.4865 79.1946C80.3593 74.454 75.8831 70.7593 70.6356 68.5875ZM29.7925 118.971C19.3303 116.177 12.0389 106.93 12.0389 95.2249C12.0389 84.9862 19.5677 75.6694 29.7925 72.1214V118.971ZM45.9118 119.809H36.2877C35.5195 119.809 34.7512 119.809 34.0109 119.697V70.9621C34.8146 70.8074 35.6259 70.6955 36.4414 70.6268H45.9398L45.9118 119.809ZM45.9118 66.4084H33.3404C30.0177 66.4016 26.8313 65.0869 24.4706 62.7488C22.9978 61.2915 21.908 59.4929 21.2981 57.5129C20.6882 55.5328 20.5772 53.4327 20.9749 51.3994C21.3725 49.3661 22.2666 47.4626 23.5774 45.8581C24.8883 44.2537 26.5754 42.9982 28.4887 42.2032C30.4019 41.4082 32.482 41.0984 34.5439 41.3013C36.6058 41.5042 38.5855 42.2136 40.3071 43.3664C42.0286 44.5191 43.4386 46.0795 44.4116 47.9087C45.3845 49.7378 45.8903 51.7791 45.8839 53.851L45.9118 66.4084ZM50.1023 53.837C50.1023 51.3506 50.8396 48.9201 52.221 46.8527C53.6024 44.7853 55.5657 43.174 57.8629 42.2225C60.16 41.271 62.6877 41.0221 65.1263 41.5071C67.5649 41.9922 69.8049 43.1895 71.5631 44.9477C73.3212 46.7058 74.5185 48.9458 75.0036 51.3844C75.4887 53.8231 75.2397 56.3508 74.2882 58.6479C73.3367 60.945 71.7254 62.9084 69.6581 64.2898C67.5907 65.6711 65.1601 66.4084 62.6737 66.4084H50.1023V53.837ZM67.0179 102.768L64.0845 105.729C65.9602 107.596 68.2914 108.941 70.8469 109.629C73.4025 110.318 76.0936 110.326 78.6534 109.654C76.314 112.544 73.4135 114.929 70.127 116.667C66.8405 118.405 63.236 119.46 59.5309 119.767H50.1023V70.6129H59.6147C62.8491 70.5513 66.0625 71.1462 69.0605 72.3616C72.0585 73.5771 74.7789 75.3879 77.0573 77.6845C79.3356 79.9811 81.1246 82.7159 82.3161 85.7235C83.5075 88.7312 84.0768 91.9492 83.9893 95.183C83.9936 97.821 83.5203 100.438 82.5925 102.907C80.5006 104.939 77.6922 106.063 74.7765 106.037C71.8608 106.011 69.073 104.836 67.0179 102.768Z" fill="black"/>
</svg>