<svg width="115" height="87" viewBox="0 0 115 87" fill="none" xmlns="http://www.w3.org/2000/svg">
<path fill-rule="evenodd" clip-rule="evenodd" d="M102.826 23.6167C101.802 21.6942 99.8338 20.3931 97.5736 20.3931C94.2581 20.3931 91.5703 23.1928 91.5703 26.6465C91.5703 26.777 91.5742 26.9066 91.5817 27.0351C91.5742 27.1291 91.5703 27.228 91.5703 27.332C91.5703 34.5081 102.7 40.9043 102.7 40.9043C102.7 40.9043 114.083 34.5081 114.083 27.332C114.083 27.2278 114.079 27.1285 114.071 27.0341C114.079 26.9059 114.083 26.7766 114.083 26.6465C114.083 23.1928 111.395 20.3931 108.079 20.3931C105.819 20.3931 103.851 21.6942 102.826 23.6167Z" fill="#F19A9A"/>
<path d="M46.4007 29.3526V16.7811C46.4007 14.2948 45.6634 11.8642 44.282 9.79684C42.9006 7.72948 40.9372 6.11817 38.6401 5.16666C36.343 4.21516 33.8153 3.96621 31.3767 4.45128C28.9381 4.93635 26.698 6.13366 24.9399 7.89181C23.1818 9.64995 21.9844 11.89 21.4994 14.3286C21.0143 16.7672 21.2633 19.2949 22.2148 21.592C23.1663 23.8891 24.7776 25.8525 26.8449 27.2339C28.9123 28.6153 31.3428 29.3526 33.8292 29.3526H46.4007Z" fill="white"/>
<path d="M72.0032 25.7628C73.476 24.3056 74.5658 22.5069 75.1757 20.5269C75.7856 18.5468 75.8966 16.4468 75.499 14.4134C75.1013 12.3801 74.2073 10.4766 72.8964 8.87217C71.5855 7.26777 69.8984 6.01222 67.9851 5.21722C66.0719 4.42222 63.9918 4.1124 61.9299 4.31533C59.868 4.51827 57.8883 5.22766 56.1667 6.3804C54.4452 7.53314 53.0352 9.0935 52.0623 10.9227C51.0893 12.7519 50.5835 14.7932 50.5899 16.865V29.4364H63.1613C64.8043 29.4359 66.4311 29.1111 67.9484 28.4807C69.4656 27.8503 70.8436 26.9267 72.0032 25.7628Z" fill="white"/>
<path d="M12.5273 58.1831C12.5273 69.9304 19.8188 79.2192 30.281 81.9291V35.0796C20.0143 38.6415 12.5273 47.9443 12.5273 58.1831Z" fill="#F8CD0E"/>
<path d="M60.0184 82.8091C63.7267 82.4967 67.3331 81.4358 70.6198 79.6904C73.9066 77.945 76.8053 75.5514 79.1409 72.6542C76.5811 73.3265 73.89 73.3179 71.3344 72.6294C68.7789 71.9409 66.4477 70.5964 64.5721 68.7291L67.5054 65.7678C69.5569 67.8112 72.3269 68.9699 75.2223 68.996C78.1177 69.0222 80.9082 67.9135 82.9962 65.9075C83.924 63.4381 84.3973 60.8211 84.393 58.1831C84.4782 54.9576 83.9101 51.7482 82.7229 48.7479C81.5357 45.7476 79.7539 43.0184 77.4848 40.7244C75.2156 38.4305 72.506 36.6192 69.5187 35.3995C66.5315 34.1798 63.3285 33.5768 60.1022 33.6269H50.5898V82.8091H60.0184ZM66.1086 48.5171C66.9794 48.5171 67.8306 48.7755 68.5545 49.2596C69.2784 49.7437 69.8423 50.4317 70.175 51.2365C70.5076 52.0413 70.5939 52.9267 70.423 53.7806C70.2521 54.6345 69.8316 55.4185 69.2149 56.0333C68.5981 56.6481 67.8128 57.066 66.9584 57.2342C66.1039 57.4024 65.2188 57.3133 64.4151 56.9781C63.6113 56.6429 62.9251 56.0768 62.4433 55.3514C61.9615 54.626 61.7058 53.7739 61.7086 52.9031C61.7086 52.3259 61.8225 51.7544 62.0438 51.2214C62.2651 50.6883 62.5894 50.2042 62.9981 49.7967C63.4069 49.3893 63.8921 49.0665 64.4258 48.8469C64.9596 48.6273 65.5314 48.5152 66.1086 48.5171Z" fill="#F8CD0E"/>
<path d="M36.9012 33.627C36.0857 33.6957 35.2744 33.8076 34.4707 33.9622V82.6975C35.211 82.7673 35.9793 82.8092 36.7475 82.8092H46.3996V33.613H36.9012V33.627Z" fill="#F8CD0E"/>
<path d="M66.109 57.289C66.9792 57.289 67.8299 57.031 68.5535 56.5475C69.2771 56.064 69.841 55.3768 70.1741 54.5728C70.5071 53.7688 70.5942 52.8841 70.4244 52.0306C70.2547 51.1771 69.8356 50.3931 69.2203 49.7777C68.6049 49.1624 67.8209 48.7433 66.9674 48.5736C66.1139 48.4038 65.2292 48.4909 64.4252 48.8239C63.6212 49.157 62.934 49.7209 62.4505 50.4445C61.967 51.1681 61.709 52.0188 61.709 52.889C61.709 54.056 62.1726 55.1751 62.9977 56.0003C63.8229 56.8254 64.942 57.289 66.109 57.289Z" fill="black"/>
<path d="M71.1239 31.5875C72.5339 30.8204 73.8274 29.8562 74.9652 28.724C76.6576 27.0257 77.966 24.984 78.8021 22.7369C79.6381 20.4897 79.9823 18.0894 79.8115 15.6978C79.6407 13.3063 78.9588 10.9792 77.8118 8.87371C76.6648 6.76821 75.0795 4.93327 73.1629 3.49276C71.2462 2.05224 69.0428 1.03967 66.7014 0.523403C64.3601 0.00713531 61.9352 -0.000818044 59.5904 0.50008C57.2457 1.00098 55.0357 1.99907 53.1096 3.42698C51.1836 4.8549 49.5863 6.6794 48.4255 8.77733C47.1597 6.44081 45.3564 4.43873 43.1645 2.93627C40.9727 1.43381 38.455 0.474026 35.8191 0.13609C33.1833 -0.201846 30.5049 0.0917536 28.0049 0.992668C25.5049 1.89358 23.2549 3.37599 21.4405 5.31761C19.6262 7.25922 18.2995 9.60439 17.5698 12.1597C16.8402 14.7149 16.7286 17.407 17.2442 20.0139C17.7597 22.6208 18.8877 25.0678 20.5351 27.153C22.1825 29.2381 24.302 30.9017 26.7189 32.0065C16.6617 36.3367 9.31444 45.6954 8.4484 56.1157H0.570312V60.3062H8.43444C8.82545 67.5443 11.9871 74.3543 17.2638 79.3241C22.5405 84.2939 29.5275 87.0424 36.776 86.9995H60.2706C75.8871 85.7703 88.668 72.8497 88.668 58.183C88.7368 52.5043 87.102 46.9352 83.9748 42.1946C80.8476 37.454 76.3714 33.7593 71.1239 31.5875ZM30.2808 81.9709C19.8186 79.1773 12.5271 69.9303 12.5271 58.2249C12.5271 47.9862 20.056 38.6694 30.2808 35.1214V81.9709ZM46.4001 82.809H36.776C36.0078 82.809 35.2395 82.809 34.4992 82.6973V33.9621C35.3028 33.8074 36.1141 33.6955 36.9297 33.6268H46.4281L46.4001 82.809ZM46.4001 29.4084H33.8287C30.506 29.4016 27.3196 28.0869 24.9589 25.7488C23.4861 24.2915 22.3963 22.4929 21.7864 20.5129C21.1765 18.5328 21.0655 16.4327 21.4631 14.3994C21.8608 12.3661 22.7548 10.4626 24.0657 8.85815C25.3766 7.25374 27.0637 5.9982 28.977 5.2032C30.8902 4.40819 32.9703 4.09838 35.0322 4.30131C37.0941 4.50424 39.0738 5.21363 40.7954 6.36637C42.5169 7.51912 43.9269 9.07948 44.8998 10.9087C45.8728 12.7378 46.3786 14.7791 46.3722 16.851L46.4001 29.4084ZM50.5906 16.837C50.5906 14.3506 51.3279 11.9201 52.7093 9.8527C54.0906 7.78534 56.054 6.17403 58.3512 5.22253C60.6483 4.27103 63.176 4.02207 65.6146 4.50714C68.0532 4.99221 70.2932 6.18953 72.0514 7.94767C73.8095 9.70582 75.0068 11.9458 75.4919 14.3844C75.977 16.8231 75.728 19.3508 74.7765 21.6479C73.825 23.945 72.2137 25.9084 70.1463 27.2898C68.079 28.6711 65.6484 29.4084 63.162 29.4084H50.5906V16.837ZM67.5061 65.7678L64.5728 68.729C66.4485 70.5963 68.7797 71.9408 71.3352 72.6293C73.8907 73.3178 76.5818 73.3264 79.1417 72.6541C76.8023 75.5436 73.9018 77.9293 70.6153 79.6674C67.3288 81.4055 63.7243 82.4599 60.0192 82.7671H50.5906V33.6129H60.103C63.3374 33.5513 66.5508 34.1462 69.5488 35.3616C72.5468 36.5771 75.2672 38.3879 77.5455 40.6845C79.8239 42.9811 81.6129 45.7159 82.8044 48.7235C83.9958 51.7312 84.565 54.9492 84.4776 58.183C84.4819 60.821 84.0086 63.438 83.0807 65.9075C80.9889 67.9388 78.1805 69.0633 75.2647 69.0372C72.349 69.011 69.5612 67.8363 67.5061 65.7678Z" fill="black"/>
</svg>