<?xml version="1.0" encoding="UTF-8"?>
<!DOCTYPE svg PUBLIC "-//W3C//DTD SVG 1.1//EN"
    "http://www.w3.org/Graphics/SVG/1.1/DTD/svg11.dtd"><svg xmlns="http://www.w3.org/2000/svg" height="103.0375" stroke-opacity="1" viewBox="0 0 64 103" font-size="1" width="63.6000" xmlns:xlink="http://www.w3.org/1999/xlink" stroke="rgb(0,0,0)" version="1.1"><defs></defs><g stroke-linejoin="miter" stroke-opacity="1.0" fill-opacity="1.0" stroke="rgb(0,0,0)" stroke-width="1.5" fill="rgb(255,255,255)" stroke-linecap="butt" stroke-miterlimit="10.0"><path d="M 44.6000,92.0375 l 8.0000,-8.0000 l 8.0000,8.0000 h -4.0000 v 8.0000 h -8.0000 v -8.0000 Z"/></g><g stroke-linejoin="miter" stroke-opacity="1.0" fill-opacity="1.0" stroke="rgb(0,0,0)" stroke-width="1.5" fill="rgb(255,255,255)" stroke-linecap="butt" stroke-miterlimit="10.0"><path d="M 23.8000,92.0375 l 8.0000,-8.0000 l 8.0000,8.0000 h -4.0000 v 8.0000 h -8.0000 v -8.0000 Z"/></g><g stroke-linejoin="miter" stroke-opacity="1.0" fill-opacity="1.0" stroke="rgb(0,0,0)" stroke-width="1.5" fill="rgb(255,255,255)" stroke-linecap="butt" stroke-miterlimit="10.0"><path d="M 3.0000,92.0375 l 8.0000,-8.0000 l 8.0000,8.0000 h -4.0000 v 8.0000 h -8.0000 v -8.0000 Z"/></g><g stroke-linejoin="miter" stroke-opacity="1.0" fill-opacity="1.0" stroke="rgb(0,0,0)" stroke-width="1.5" fill="rgb(255,255,255)" stroke-linecap="butt" stroke-miterlimit="10.0"><path d="M 31.8000,79.2375 c 0.0000,-9.0000 -18.0000,-13.5000 -18.0000 -27.0000c 0.0000,-11.2500 18.0000,-11.2500 18.0000 -0.0000c 0.0000,-11.2500 18.0000,-11.2500 18.0000 0.0000c 0.0000,13.5000 -18.0000,18.0000 -18.0000 27.0000Z"/></g><g stroke-linejoin="miter" stroke-opacity="1.0" fill-opacity="0.0" stroke="rgb(0,0,0)" stroke-width="1.5" fill="rgb(0,0,0)" stroke-linecap="butt" stroke-miterlimit="10.0"><defs><clipPath id="symbolmyClip1"><path d="M 31.8000,79.2375 c 0.0000,-9.0000 -18.0000,-13.5000 -18.0000 -27.0000c 0.0000,-11.2500 18.0000,-11.2500 18.0000 -0.0000c 0.0000,-11.2500 18.0000,-11.2500 18.0000 0.0000c 0.0000,13.5000 -18.0000,18.0000 -18.0000 27.0000Z"/></clipPath></defs><g clip-path="url(#symbolmyClip1)"><path d="M -4.2000,94.5188 l 72.0000,-72.0000 "/></g></g><g stroke-linejoin="miter" stroke-opacity="1.0" fill-opacity="0.0" stroke="rgb(0,0,0)" stroke-width="1.5" fill="rgb(0,0,0)" stroke-linecap="butt" stroke-miterlimit="10.0"><defs><clipPath id="symbolmyClip2"><path d="M 31.8000,79.2375 c 0.0000,-9.0000 -18.0000,-13.5000 -18.0000 -27.0000c 0.0000,-11.2500 18.0000,-11.2500 18.0000 -0.0000c 0.0000,-11.2500 18.0000,-11.2500 18.0000 0.0000c 0.0000,13.5000 -18.0000,18.0000 -18.0000 27.0000Z"/></clipPath></defs><g clip-path="url(#symbolmyClip2)"><path d="M -4.2000,22.5187 l 72.0000,72.0000 "/></g></g><g stroke-linejoin="miter" stroke-opacity="1.0" fill-opacity="1.0" stroke="rgb(0,0,0)" stroke-width="1.5" fill="rgb(255,255,255)" stroke-linecap="butt" stroke-miterlimit="10.0"><path d="M 49.8000,21.0000 c 0.0000,-9.9411 -8.0589,-18.0000 -18.0000 -18.0000c -9.9411,-0.0000 -18.0000,8.0589 -18.0000 18.0000c -0.0000,9.9411 8.0589,18.0000 18.0000 18.0000c 9.9411,0.0000 18.0000,-8.0589 18.0000 -18.0000Z"/></g></svg>